<svg width="24" height="23" viewBox="0 0 24 23" fill="none" xmlns="http://www.w3.org/2000/svg">
<path fill-rule="evenodd" clip-rule="evenodd" d="M0 5.19122C0 2.32419 2.27545 0 5.08235 0H18.9176C21.7246 0 24 2.32419 24 5.19122V17.8088C24 20.6758 21.7246 23 18.9176 23H5.08235C2.27545 23 0 20.6758 0 17.8088V5.19122ZM5.08235 1.44201H18.9176C20.9449 1.44201 22.5882 3.12059 22.5882 5.19122V17.8088C22.5882 19.8794 20.9449 21.558 18.9176 21.558H12.7765V19.7657L17.5109 14.9299C17.7866 14.6483 17.7866 14.1918 17.5109 13.9102C17.2352 13.6287 16.7883 13.6287 16.5126 13.9102L12.7765 17.7264V13.1325L17.5109 8.29666C17.7866 8.01509 17.7866 7.55858 17.5109 7.27701C17.2352 6.99544 16.7883 6.99544 16.5126 7.27701L12.7765 11.0932V4.65047C12.7765 4.25227 12.4604 3.92947 12.0706 3.92947C11.6807 3.92947 11.3647 4.25227 11.3647 4.65047V11.67L7.20502 7.42121C6.92936 7.13964 6.48242 7.13964 6.20675 7.42121C5.93109 7.70278 5.93109 8.15929 6.20675 8.44086L11.3647 13.7093L11.3647 21.558H5.08235C3.05514 21.558 1.41176 19.8794 1.41176 17.8088V5.19122C1.41176 3.12059 3.05514 1.44201 5.08235 1.44201Z" fill="black"/>
</svg>
